<?xml version="1.0" encoding="UTF-8"?>
<svg width="200" height="200" viewBox="0 0 200 200" xmlns="http://www.w3.org/2000/svg">
  <defs>
    <!-- Tekrar eden desen için pattern tanımı -->
    <pattern id="bookPattern" x="0" y="0" width="100" height="100" patternUnits="userSpaceOnUse">
      <!-- Minik Kitap 1 -->
      <g transform="translate(10,10) rotate(-15)" opacity="0.1">
        <path d="M0 0 L20 0 L20 30 L0 30 Z" fill="#5D4037"/>
        <path d="M2 2 L18 2 L18 28 L2 28 Z" fill="#F9F5EB"/>
      </g>
      
      <!-- Minik Kitap 2 -->
      <g transform="translate(60,40) rotate(25)" opacity="0.08">
        <path d="M0 0 L25 0 L25 35 L0 35 Z" fill="#8D6E63"/>
        <path d="M2 2 L23 2 L23 33 L2 33 Z" fill="#F9F5EB"/>
      </g>
      
      <!-- Minik Yıldız -->
      <path transform="translate(80,20)" d="M0 0 L3 9 L12 9 L4 14 L7 23 L0 18 L-7 23 L-4 14 L-12 9 L-3 9 Z" fill="#8D6E63" opacity="0.1"/>
    </pattern>
  </defs>
  
  <!-- Pattern'i tüm alana uygula -->
  <rect width="200" height="200" fill="url(#bookPattern)"/>
</svg> 